<svg fill="none" height="160" viewBox="0 0 432 160" width="432" xmlns="http://www.w3.org/2000/svg"><path d="m0 0h432v160h-432z" fill="#18181b"/><path d="m191.191 100.383c0-4.6352 3.77-8.3947 8.417-8.3947h11.893v21.1697h-20.31z" fill="#facc15"/><path d="m194.301 57.7721c2.159-3.2302 4.922-5.3106 4.922-5.3106 1.628-1.2228 3.44-2.1535 5.654-2.993 5.397-2.3724 13.21 1.7337 13.21 1.7337s-1.263.365-2.635 1.314c-1.829 1.2775-2.653 3.1389-3.22 4.7997-1.427 4.0696-1.336 7.7561-1.153 17.7387.019.9854.055 3.0111.073 3.9053-2.268.1278-5.672.6024-9.459 2.2447-4.702 2.0257-7.794 4.891-9.459 6.7159-2.507-14.3807-.879-25.7502 2.067-30.1484z" fill="#facc15"/><path d="m218.874 92.7192c14.455 0 26.622-10.7492 26.622-23.5421 0-12.793-11.911-23.1771-26.622-23.1771-5.214 0-10.099 1.314-14.198 3.5769 2.123-.6022 4.41-.8029 6.788-.4745 7.776 1.095 13.906 6.2962 13.906 15.9686 0 4.9638-3.111 11.6797-9.515 15.0559-2.945 1.5513-6.001 2.6462-8.819 3.6682-3.311 1.1863-6.312 2.263-8.379 3.8141-.129.0913-.275.2008-.403.3103-2.086 1.533-5.91 4.6172-6.916 10.822.366-.8212.823-1.46 1.098-1.9527 1.372-2.0621 3.037-3.1571 4.94-3.6134 1.555-.4562 5.379-.4562 6.953-.4562z" fill="#fef08a"/></svg>